<mxfile host="app.diagrams.net" modified="2023-02-23T12:15:52.219Z" agent="5.0 (Windows NT 10.0; Win64; x64) AppleWebKit/537.36 (KHTML, like Gecko) Chrome/110.0.0.0 Safari/537.36" etag="9zmnwB5NpZn2klFAp40D" version="20.8.20" type="github">
  <diagram id="C5RBs43oDa-KdzZeNtuy" name="Page-1">
    <mxGraphModel dx="1434" dy="796" grid="1" gridSize="10" guides="1" tooltips="1" connect="1" arrows="1" fold="1" page="1" pageScale="1" pageWidth="827" pageHeight="1169" math="0" shadow="0">
      <root>
        <mxCell id="WIyWlLk6GJQsqaUBKTNV-0" />
        <mxCell id="WIyWlLk6GJQsqaUBKTNV-1" parent="WIyWlLk6GJQsqaUBKTNV-0" />
        <mxCell id="K97rRy4W2gPF59VRSpn7-3" value="" style="edgeStyle=orthogonalEdgeStyle;rounded=0;orthogonalLoop=1;jettySize=auto;html=1;" parent="WIyWlLk6GJQsqaUBKTNV-1" source="K97rRy4W2gPF59VRSpn7-1" target="K97rRy4W2gPF59VRSpn7-2" edge="1">
          <mxGeometry relative="1" as="geometry" />
        </mxCell>
        <mxCell id="K97rRy4W2gPF59VRSpn7-1" value="start" style="ellipse;whiteSpace=wrap;html=1;" parent="WIyWlLk6GJQsqaUBKTNV-1" vertex="1">
          <mxGeometry x="240" y="250" width="120" height="80" as="geometry" />
        </mxCell>
        <mxCell id="Nh9Y5LXNSLvvS71GvXiv-7" value="" style="edgeStyle=orthogonalEdgeStyle;rounded=0;orthogonalLoop=1;jettySize=auto;html=1;" edge="1" parent="WIyWlLk6GJQsqaUBKTNV-1" source="K97rRy4W2gPF59VRSpn7-2" target="Nh9Y5LXNSLvvS71GvXiv-6">
          <mxGeometry relative="1" as="geometry" />
        </mxCell>
        <mxCell id="K97rRy4W2gPF59VRSpn7-2" value="pobierz a&amp;nbsp;" style="rounded=0;whiteSpace=wrap;html=1;" parent="WIyWlLk6GJQsqaUBKTNV-1" vertex="1">
          <mxGeometry x="240" y="370" width="120" height="60" as="geometry" />
        </mxCell>
        <mxCell id="Nh9Y5LXNSLvvS71GvXiv-2" value="stop" style="ellipse;whiteSpace=wrap;html=1;" vertex="1" parent="WIyWlLk6GJQsqaUBKTNV-1">
          <mxGeometry x="240" y="780" width="120" height="80" as="geometry" />
        </mxCell>
        <mxCell id="Nh9Y5LXNSLvvS71GvXiv-9" value="" style="edgeStyle=orthogonalEdgeStyle;rounded=0;orthogonalLoop=1;jettySize=auto;html=1;" edge="1" parent="WIyWlLk6GJQsqaUBKTNV-1" source="Nh9Y5LXNSLvvS71GvXiv-6" target="Nh9Y5LXNSLvvS71GvXiv-8">
          <mxGeometry relative="1" as="geometry" />
        </mxCell>
        <mxCell id="Nh9Y5LXNSLvvS71GvXiv-11" value="" style="edgeStyle=orthogonalEdgeStyle;rounded=0;orthogonalLoop=1;jettySize=auto;html=1;" edge="1" parent="WIyWlLk6GJQsqaUBKTNV-1" source="Nh9Y5LXNSLvvS71GvXiv-6" target="Nh9Y5LXNSLvvS71GvXiv-10">
          <mxGeometry relative="1" as="geometry">
            <Array as="points">
              <mxPoint x="300" y="610" />
              <mxPoint x="300" y="610" />
            </Array>
          </mxGeometry>
        </mxCell>
        <mxCell id="Nh9Y5LXNSLvvS71GvXiv-17" value="tak" style="edgeLabel;html=1;align=center;verticalAlign=middle;resizable=0;points=[];" vertex="1" connectable="0" parent="Nh9Y5LXNSLvvS71GvXiv-11">
          <mxGeometry x="-0.2222" y="1" relative="1" as="geometry">
            <mxPoint as="offset" />
          </mxGeometry>
        </mxCell>
        <mxCell id="Nh9Y5LXNSLvvS71GvXiv-6" value="b &amp;gt; 0" style="rhombus;whiteSpace=wrap;html=1;" vertex="1" parent="WIyWlLk6GJQsqaUBKTNV-1">
          <mxGeometry x="260" y="490" width="80" height="80" as="geometry" />
        </mxCell>
        <mxCell id="Nh9Y5LXNSLvvS71GvXiv-13" style="edgeStyle=orthogonalEdgeStyle;rounded=0;orthogonalLoop=1;jettySize=auto;html=1;entryX=1;entryY=0.5;entryDx=0;entryDy=0;" edge="1" parent="WIyWlLk6GJQsqaUBKTNV-1" source="Nh9Y5LXNSLvvS71GvXiv-8" target="Nh9Y5LXNSLvvS71GvXiv-10">
          <mxGeometry relative="1" as="geometry">
            <mxPoint x="460" y="640" as="targetPoint" />
            <Array as="points">
              <mxPoint x="460" y="690" />
            </Array>
          </mxGeometry>
        </mxCell>
        <mxCell id="Nh9Y5LXNSLvvS71GvXiv-8" value="b + (-1)" style="rounded=0;whiteSpace=wrap;html=1;" vertex="1" parent="WIyWlLk6GJQsqaUBKTNV-1">
          <mxGeometry x="400" y="500" width="120" height="60" as="geometry" />
        </mxCell>
        <mxCell id="Nh9Y5LXNSLvvS71GvXiv-12" value="" style="edgeStyle=orthogonalEdgeStyle;rounded=0;orthogonalLoop=1;jettySize=auto;html=1;" edge="1" parent="WIyWlLk6GJQsqaUBKTNV-1" source="Nh9Y5LXNSLvvS71GvXiv-10" target="Nh9Y5LXNSLvvS71GvXiv-2">
          <mxGeometry relative="1" as="geometry" />
        </mxCell>
        <mxCell id="Nh9Y5LXNSLvvS71GvXiv-10" value="wyÅ›wietl b" style="rounded=0;whiteSpace=wrap;html=1;" vertex="1" parent="WIyWlLk6GJQsqaUBKTNV-1">
          <mxGeometry x="240" y="660" width="120" height="60" as="geometry" />
        </mxCell>
      </root>
    </mxGraphModel>
  </diagram>
</mxfile>
